<mxfile host="drawio-plugin" modified="2025-03-26T12:39:58.581Z" agent="5.0 (Windows NT 6.2; Win64; x64) AppleWebKit/537.36 (KHTML, like Gecko) Chrome/104.0.5112.102 Safari/537.36" etag="kmGfvCt4voJLJ1GkOebg" version="20.5.3" type="embed"><diagram id="23iRSUPoRavnBvh4doch" name="Page-1"><mxGraphModel dx="1040" dy="418" grid="1" gridSize="10" guides="1" tooltips="1" connect="1" arrows="1" fold="1" page="1" pageScale="1" pageWidth="827" pageHeight="1169" math="0" shadow="0"><root><mxCell id="0"/><mxCell id="1" parent="0"/><mxCell id="58" style="edgeStyle=orthogonalEdgeStyle;rounded=0;orthogonalLoop=1;jettySize=auto;html=1;entryX=0;entryY=0.5;entryDx=0;entryDy=0;endArrow=none;startFill=0;" parent="1" edge="1"><mxGeometry relative="1" as="geometry"><mxPoint x="755" y="262.5" as="sourcePoint"/><mxPoint x="1005" y="262.5" as="targetPoint"/></mxGeometry></mxCell><mxCell id="59" value="User" style="shape=umlActor;verticalLabelPosition=bottom;verticalAlign=top;html=1;outlineConnect=0;" parent="1" vertex="1"><mxGeometry x="715" y="222.5" width="35" height="70" as="geometry"/></mxCell><mxCell id="60" value=":Frontend" style="rounded=0;whiteSpace=wrap;html=1;" parent="1" vertex="1"><mxGeometry x="1005" y="237.5" width="130.91" height="40" as="geometry"/></mxCell><mxCell id="61" value="" style="endArrow=classic;html=1;rounded=0;" parent="1" edge="1"><mxGeometry width="50" height="50" relative="1" as="geometry"><mxPoint x="765" y="247.5" as="sourcePoint"/><mxPoint x="985" y="247.5" as="targetPoint"/></mxGeometry></mxCell><mxCell id="62" value="" style="endArrow=classic;html=1;rounded=0;dashed=1;" parent="1" edge="1"><mxGeometry width="50" height="50" relative="1" as="geometry"><mxPoint x="975" y="277.5" as="sourcePoint"/><mxPoint x="765" y="277.5" as="targetPoint"/></mxGeometry></mxCell><mxCell id="63" value="&amp;nbsp;:Router" style="rounded=0;whiteSpace=wrap;html=1;" parent="1" vertex="1"><mxGeometry x="1469" y="235" width="130.91" height="40" as="geometry"/></mxCell><mxCell id="64" style="edgeStyle=orthogonalEdgeStyle;rounded=0;orthogonalLoop=1;jettySize=auto;html=1;entryX=0;entryY=0.5;entryDx=0;entryDy=0;endArrow=none;startFill=0;exitX=1.002;exitY=0.429;exitDx=0;exitDy=0;exitPerimeter=0;" parent="1" source="60" target="63" edge="1"><mxGeometry relative="1" as="geometry"><mxPoint x="1259.91" y="255" as="sourcePoint"/><mxPoint x="1464.91" y="255" as="targetPoint"/></mxGeometry></mxCell><mxCell id="65" value="" style="endArrow=classic;html=1;rounded=0;" parent="1" edge="1"><mxGeometry width="50" height="50" relative="1" as="geometry"><mxPoint x="1140" y="240" as="sourcePoint"/><mxPoint x="1444.91" y="240" as="targetPoint"/></mxGeometry></mxCell><mxCell id="66" value="&amp;nbsp;" style="text;whiteSpace=wrap;html=1;" parent="1" vertex="1"><mxGeometry x="1369" y="220" width="40" height="40" as="geometry"/></mxCell><mxCell id="67" value=":UserController&amp;nbsp;" style="rounded=0;whiteSpace=wrap;html=1;" parent="1" vertex="1"><mxGeometry x="1959.9099999999999" y="235" width="130.91" height="40" as="geometry"/></mxCell><mxCell id="68" style="edgeStyle=orthogonalEdgeStyle;rounded=0;orthogonalLoop=1;jettySize=auto;html=1;entryX=0;entryY=0.5;entryDx=0;entryDy=0;endArrow=none;startFill=0;" parent="1" target="67" edge="1"><mxGeometry relative="1" as="geometry"><mxPoint x="1599.91" y="255" as="sourcePoint"/><mxPoint x="1804.91" y="255" as="targetPoint"/></mxGeometry></mxCell><mxCell id="69" value="" style="endArrow=classic;html=1;rounded=0;dashed=1;" parent="1" edge="1"><mxGeometry width="50" height="50" relative="1" as="geometry"><mxPoint x="1939" y="270" as="sourcePoint"/><mxPoint x="1619" y="270" as="targetPoint"/></mxGeometry></mxCell><mxCell id="70" value=":UserService&amp;nbsp;" style="rounded=0;whiteSpace=wrap;html=1;" parent="1" vertex="1"><mxGeometry x="2419.91" y="235" width="130.91" height="40" as="geometry"/></mxCell><mxCell id="71" style="edgeStyle=orthogonalEdgeStyle;rounded=0;orthogonalLoop=1;jettySize=auto;html=1;entryX=0;entryY=0.5;entryDx=0;entryDy=0;endArrow=none;startFill=0;" parent="1" target="70" edge="1"><mxGeometry relative="1" as="geometry"><mxPoint x="2090.82" y="255" as="sourcePoint"/><mxPoint x="2295.82" y="255" as="targetPoint"/></mxGeometry></mxCell><mxCell id="72" value="" style="endArrow=classic;html=1;rounded=0;" parent="1" edge="1"><mxGeometry width="50" height="50" relative="1" as="geometry"><mxPoint x="2115.82" y="240" as="sourcePoint"/><mxPoint x="2409.91" y="240" as="targetPoint"/></mxGeometry></mxCell><mxCell id="73" value="" style="endArrow=classic;html=1;rounded=0;dashed=1;" parent="1" edge="1"><mxGeometry width="50" height="50" relative="1" as="geometry"><mxPoint x="2409.91" y="270" as="sourcePoint"/><mxPoint x="2109.91" y="270" as="targetPoint"/></mxGeometry></mxCell><mxCell id="74" style="edgeStyle=orthogonalEdgeStyle;rounded=0;orthogonalLoop=1;jettySize=auto;html=1;endArrow=none;startFill=0;" parent="1" source="75" target="80" edge="1"><mxGeometry relative="1" as="geometry"/></mxCell><mxCell id="75" value=":UserRepository" style="rounded=0;whiteSpace=wrap;html=1;" parent="1" vertex="1"><mxGeometry x="2759.91" y="235" width="130.91" height="40" as="geometry"/></mxCell><mxCell id="76" style="edgeStyle=orthogonalEdgeStyle;rounded=0;orthogonalLoop=1;jettySize=auto;html=1;entryX=0;entryY=0.5;entryDx=0;entryDy=0;endArrow=none;startFill=0;" parent="1" target="75" edge="1"><mxGeometry relative="1" as="geometry"><mxPoint x="2550.82" y="255" as="sourcePoint"/><mxPoint x="2755.82" y="255" as="targetPoint"/></mxGeometry></mxCell><mxCell id="77" value="" style="endArrow=classic;html=1;rounded=0;" parent="1" edge="1"><mxGeometry width="50" height="50" relative="1" as="geometry"><mxPoint x="2575.82" y="240" as="sourcePoint"/><mxPoint x="2735.82" y="240" as="targetPoint"/></mxGeometry></mxCell><mxCell id="78" value="" style="endArrow=classic;html=1;rounded=0;dashed=1;" parent="1" edge="1"><mxGeometry width="50" height="50" relative="1" as="geometry"><mxPoint x="2739.91" y="270" as="sourcePoint"/><mxPoint x="2579.91" y="270" as="targetPoint"/></mxGeometry></mxCell><mxCell id="79" value="4. POST /api/users/reset-password-request{username, email}&lt;div&gt;28. POST /api/users/reset-password {token, newPassword}&lt;/div&gt;" style="text;html=1;align=center;verticalAlign=middle;resizable=0;points=[];autosize=1;strokeColor=none;fillColor=none;" parent="1" vertex="1"><mxGeometry x="1118.0900000000001" y="195" width="350" height="40" as="geometry"/></mxCell><mxCell id="80" value="&amp;nbsp;:Database" style="rounded=0;whiteSpace=wrap;html=1;" parent="1" vertex="1"><mxGeometry x="3299.91" y="235" width="130.91" height="40" as="geometry"/></mxCell><mxCell id="81" value="Reset password" style="text;html=1;align=center;verticalAlign=middle;whiteSpace=wrap;rounded=0;fontSize=20;" parent="1" vertex="1"><mxGeometry x="1774" y="70" width="345" height="30" as="geometry"/></mxCell><mxCell id="82" value="1. handleForgotPasswordClick()&lt;div&gt;3. handleForgotPasswordForm()&lt;/div&gt;&lt;div&gt;25. handleResetPasswordForm()&lt;/div&gt;&lt;div&gt;27. handleResetPasswordSubmit(token, newPassword, confirmPassword)&lt;/div&gt;" style="text;html=1;align=center;verticalAlign=middle;resizable=0;points=[];autosize=1;strokeColor=none;fillColor=none;" parent="1" vertex="1"><mxGeometry x="650" y="152.5" width="420" height="70" as="geometry"/></mxCell><mxCell id="83" value="" style="endArrow=classic;html=1;rounded=0;dashed=1;" parent="1" edge="1"><mxGeometry width="50" height="50" relative="1" as="geometry"><mxPoint x="1444.91" y="270" as="sourcePoint"/><mxPoint x="1150" y="270" as="targetPoint"/></mxGeometry></mxCell><mxCell id="84" value="" style="endArrow=classic;html=1;rounded=0;" parent="1" edge="1"><mxGeometry width="50" height="50" relative="1" as="geometry"><mxPoint x="2909.91" y="239.38" as="sourcePoint"/><mxPoint x="3279.91" y="240" as="targetPoint"/></mxGeometry></mxCell><mxCell id="85" value="" style="endArrow=classic;html=1;rounded=0;dashed=1;" parent="1" edge="1"><mxGeometry width="50" height="50" relative="1" as="geometry"><mxPoint x="3269.91" y="270" as="sourcePoint"/><mxPoint x="2909.91" y="270" as="targetPoint"/></mxGeometry></mxCell><mxCell id="86" value="&amp;nbsp;" style="text;html=1;align=center;verticalAlign=middle;resizable=0;points=[];autosize=1;strokeColor=none;fillColor=none;" parent="1" vertex="1"><mxGeometry x="1699" y="285" width="30" height="30" as="geometry"/></mxCell><mxCell id="87" value="9 . errorResponse(400)&lt;div&gt;17. errorResponse(404)&lt;/div&gt;&lt;div&gt;23. successResponse(200)&lt;/div&gt;&lt;div&gt;34. returnErrorResponse(400, &quot;กรุณากรอกรหัสผ่านให้ตรงกัน&quot;)&lt;/div&gt;&lt;div&gt;36. returnErrorResponse&lt;span style=&quot;background-color: transparent; color: light-dark(rgb(0, 0, 0), rgb(255, 255, 255));&quot;&gt;(400, &quot;รหัสผ่านต้องมีความยาว 8 ตัวอักษรขึ้นไป&lt;/span&gt;&lt;/div&gt;&lt;div&gt;&lt;span style=&quot;background-color: transparent; color: light-dark(rgb(0, 0, 0), rgb(255, 255, 255));&quot;&gt;และมีอักษรตัวพิมพ์เล็ก, ตัวพิมพ์ใหญ่และตัวเลขอย่างน้อย 1 ตัว&quot;)&lt;/span&gt;&lt;/div&gt;&lt;div&gt;&lt;span style=&quot;background-color: transparent; color: light-dark(rgb(0, 0, 0), rgb(255, 255, 255));&quot;&gt;44. e&lt;/span&gt;&lt;span style=&quot;background-color: transparent; color: light-dark(rgb(0, 0, 0), rgb(255, 255, 255));&quot;&gt;rrorResponse&lt;/span&gt;&lt;/div&gt;&lt;div&gt;(500, &quot;เกิดข้อผิดพลาด ไม่สามารถเปลี่ยนรหัสผ่านได้ในขณะนี้&quot;)&lt;/div&gt;&lt;div&gt;&lt;span style=&quot;background-color: transparent; color: light-dark(rgb(0, 0, 0), rgb(255, 255, 255));&quot;&gt;&amp;nbsp;41. returnSuccessResponse(200, &quot;แก้ไขรหัสผ่านสำเร็จ &quot;)&lt;/span&gt;&lt;/div&gt;&lt;div&gt;48. successResponse(200, &quot;แก้ไขรหัสผ่านสำเร็จ&quot;)&lt;/div&gt;" style="text;html=1;align=center;verticalAlign=middle;resizable=0;points=[];autosize=1;strokeColor=none;fillColor=none;" parent="1" vertex="1"><mxGeometry x="1098.0900000000001" y="245" width="390" height="160" as="geometry"/></mxCell><mxCell id="88" value="2.&amp;nbsp; displayForgotPasswordForm()&lt;div&gt;24. displayMessage(&quot;Reset email sent&quot;)&lt;/div&gt;&lt;div&gt;26. displayResetPasswordForm()&lt;/div&gt;&lt;div&gt;49. showRequestSuccessMessage()&lt;/div&gt;" style="text;html=1;align=center;verticalAlign=middle;resizable=0;points=[];autosize=1;strokeColor=none;fillColor=none;" parent="1" vertex="1"><mxGeometry x="760" y="287.5" width="240" height="70" as="geometry"/></mxCell><mxCell id="89" style="edgeStyle=orthogonalEdgeStyle;rounded=0;orthogonalLoop=1;jettySize=auto;html=1;entryX=0.5;entryY=1;entryDx=0;entryDy=0;endArrow=none;startFill=0;" parent="1" source="90" edge="1"><mxGeometry relative="1" as="geometry"><mxPoint x="2024.9099999999999" y="275" as="targetPoint"/></mxGeometry></mxCell><mxCell id="90" value=":EmailService" style="rounded=0;whiteSpace=wrap;html=1;" parent="1" vertex="1"><mxGeometry x="1959.9099999999999" y="510" width="130.91" height="40" as="geometry"/></mxCell><mxCell id="91" value="" style="endArrow=classic;html=1;rounded=0;" parent="1" edge="1"><mxGeometry width="50" height="50" relative="1" as="geometry"><mxPoint x="2009.8200000000002" y="300" as="sourcePoint"/><mxPoint x="2009.9099999999999" y="500" as="targetPoint"/></mxGeometry></mxCell><mxCell id="92" value="" style="endArrow=classic;html=1;rounded=0;dashed=1;" parent="1" edge="1"><mxGeometry width="50" height="50" relative="1" as="geometry"><mxPoint x="2039" y="550" as="sourcePoint"/><mxPoint x="730" y="330" as="targetPoint"/><Array as="points"><mxPoint x="2039" y="650"/><mxPoint x="730" y="650"/><mxPoint x="730" y="470"/></Array></mxGeometry></mxCell><mxCell id="93" style="edgeStyle=orthogonalEdgeStyle;rounded=0;orthogonalLoop=1;jettySize=auto;html=1;entryX=0.5;entryY=1;entryDx=0;entryDy=0;endArrow=none;startFill=0;" parent="1" source="94" edge="1"><mxGeometry relative="1" as="geometry"><mxPoint x="1533.09" y="275" as="targetPoint"/></mxGeometry></mxCell><mxCell id="94" value="&amp;nbsp;:Middleware" style="rounded=0;whiteSpace=wrap;html=1;" parent="1" vertex="1"><mxGeometry x="1468.09" y="510" width="130.91" height="40" as="geometry"/></mxCell><mxCell id="95" value="" style="endArrow=classic;html=1;rounded=0;" parent="1" edge="1"><mxGeometry width="50" height="50" relative="1" as="geometry"><mxPoint x="1518" y="300" as="sourcePoint"/><mxPoint x="1518.09" y="500" as="targetPoint"/></mxGeometry></mxCell><mxCell id="96" value="" style="endArrow=classic;html=1;rounded=0;dashed=1;" parent="1" edge="1"><mxGeometry width="50" height="50" relative="1" as="geometry"><mxPoint x="1548.09" y="500" as="sourcePoint"/><mxPoint x="1548.09" y="300" as="targetPoint"/></mxGeometry></mxCell><mxCell id="97" value="5. validateRequest()&lt;div&gt;&amp;nbsp;29. validateRequest()&lt;/div&gt;" style="text;html=1;align=center;verticalAlign=middle;resizable=0;points=[];autosize=1;strokeColor=none;fillColor=none;" parent="1" vertex="1"><mxGeometry x="1384" y="410" width="140" height="40" as="geometry"/></mxCell><mxCell id="98" value="" style="endArrow=classic;html=1;rounded=0;exitX=0.25;exitY=0;exitDx=0;exitDy=0;entryX=0.75;entryY=0;entryDx=0;entryDy=0;" parent="1" source="67" target="67" edge="1"><mxGeometry width="50" height="50" relative="1" as="geometry"><mxPoint x="1959.9099999999999" y="210" as="sourcePoint"/><mxPoint x="2089.91" y="190" as="targetPoint"/><Array as="points"><mxPoint x="1993.65" y="200"/><mxPoint x="1993.9099999999999" y="190"/><mxPoint x="2059.91" y="190"/></Array></mxGeometry></mxCell><mxCell id="99" value="7. validatePayload()&lt;div&gt;31. validateToken(token)&lt;/div&gt;&lt;div&gt;32. validateNewPassword(newPassword, confirmPassword)&lt;/div&gt;" style="text;html=1;align=center;verticalAlign=middle;resizable=0;points=[];autosize=1;strokeColor=none;fillColor=none;" parent="1" vertex="1"><mxGeometry x="1855.37" y="130" width="340" height="60" as="geometry"/></mxCell><mxCell id="100" value="8 . [Invalid Payload (4.1a)] returnErrorResponse&amp;nbsp;&lt;div&gt;&lt;span style=&quot;background-color: transparent; color: light-dark(rgb(0, 0, 0), rgb(255, 255, 255));&quot;&gt;(400, &quot;ข้อมูลไม่ครบถ้วนหรือข้อมูลไม่ถูกต้อง&quot;)&lt;/span&gt;&lt;div&gt;16.&lt;span style=&quot;background-color: transparent; color: light-dark(rgb(0, 0, 0), rgb(255, 255, 255));&quot;&gt;&amp;nbsp;returnErrorResponse&lt;/span&gt;&lt;span style=&quot;background-color: transparent; color: light-dark(rgb(0, 0, 0), rgb(255, 255, 255));&quot;&gt;(404, &quot;ไม่พบชื่อบัญชีที่ลงทะเบียนกับอีเมลนี้&quot;)&amp;nbsp;&lt;/span&gt;&lt;/div&gt;&lt;/div&gt;&lt;div&gt;22. returnSuccessResponse(200, &quot;กรุณาตรวจสอบอีเมล&quot;)&lt;/div&gt;&lt;div&gt;33. [Passwords Do Not Match(9b.2b.1)] รหัสผ่านไม่ตรงกัน&lt;/div&gt;&lt;div&gt;35. [Password Too Weak (9b.2a.1)] returnErrorResponse&lt;/div&gt;&lt;div&gt;(400, &quot;รหัสผ่านไม่ผ่านเงื่อไนขั้นต่ำ&quot;)&lt;/div&gt;&lt;div&gt;43. returnErrorResponse&lt;/div&gt;&lt;div&gt;(500, &quot;เกิดข้อผิดพลาด ไม่สามารถเปลี่ยนรหัสผ่านได้ในขณะนี้&quot;)&lt;/div&gt;&lt;div&gt;&lt;span style=&quot;background-color: transparent; color: light-dark(rgb(0, 0, 0), rgb(255, 255, 255));&quot;&gt;&amp;nbsp;47. returnSuccessResponse(200, &quot;แก้ไขรหัสผ่านสำเร็จ &quot;)&amp;nbsp;&lt;/span&gt;&lt;/div&gt;" style="text;html=1;align=center;verticalAlign=middle;resizable=0;points=[];autosize=1;strokeColor=none;fillColor=none;" parent="1" vertex="1"><mxGeometry x="1584" y="265" width="380" height="160" as="geometry"/></mxCell><mxCell id="101" style="edgeStyle=orthogonalEdgeStyle;rounded=0;orthogonalLoop=1;jettySize=auto;html=1;endArrow=none;startFill=0;exitX=1;exitY=0.5;exitDx=0;exitDy=0;entryX=0.192;entryY=1.03;entryDx=0;entryDy=0;entryPerimeter=0;" parent="1" source="94" target="67" edge="1"><mxGeometry relative="1" as="geometry"><mxPoint x="1835" y="280" as="targetPoint"/><mxPoint x="1704.21" y="565" as="sourcePoint"/><Array as="points"><mxPoint x="1639" y="530"/><mxPoint x="1639" y="470"/><mxPoint x="1985" y="470"/></Array></mxGeometry></mxCell><mxCell id="102" value="6. ResetPasswordRequest(username, email)&lt;div&gt;30. ResetPassword(token, newPassword, confirmPassword)&lt;/div&gt;" style="text;html=1;align=center;verticalAlign=middle;resizable=0;points=[];autosize=1;strokeColor=none;fillColor=none;" parent="1" vertex="1"><mxGeometry x="1619.9099999999999" y="425" width="340" height="40" as="geometry"/></mxCell><mxCell id="103" value="10. [Valid Payload] RessetPasswordRequest(username, email)&lt;div&gt;37. [Valid New Password] ResetPassword(token, newPassword)&lt;/div&gt;" style="text;html=1;align=center;verticalAlign=middle;resizable=0;points=[];autosize=1;strokeColor=none;fillColor=none;" parent="1" vertex="1"><mxGeometry x="2075.8199999999997" y="195" width="370" height="40" as="geometry"/></mxCell><mxCell id="104" value="11. findUserByUsernameAndEmail(username, email)&lt;div&gt;38. updateUserPasswordByToken(token, hash(newPassword))&lt;/div&gt;" style="text;html=1;align=center;verticalAlign=middle;resizable=0;points=[];autosize=1;strokeColor=none;fillColor=none;" parent="1" vertex="1"><mxGeometry x="2489" y="195" width="360" height="40" as="geometry"/></mxCell><mxCell id="105" value="12. SELECT id, username, email FROM users WHERE username=? AND email?&lt;div&gt;39. UPDATE users SET password=&amp;lt;HashedPassword&amp;gt; WHERE user_id = &amp;lt;user_id&amp;gt;;&lt;/div&gt;" style="text;html=1;align=center;verticalAlign=middle;resizable=0;points=[];autosize=1;strokeColor=none;fillColor=none;" parent="1" vertex="1"><mxGeometry x="2870" y="190" width="480" height="40" as="geometry"/></mxCell><mxCell id="106" value="13. userRecord&lt;div&gt;40. affectedRows&lt;/div&gt;" style="text;html=1;align=center;verticalAlign=middle;resizable=0;points=[];autosize=1;strokeColor=none;fillColor=none;" parent="1" vertex="1"><mxGeometry x="3044.91" y="275" width="120" height="40" as="geometry"/></mxCell><mxCell id="107" value="14. [User Not Found (5.1a)] nil&lt;div&gt;18. userRecord&amp;nbsp;&lt;/div&gt;&lt;div&gt;41. [DB Error (11b.1)] failure&lt;/div&gt;&lt;div&gt;45 . success&lt;/div&gt;" style="text;html=1;align=center;verticalAlign=middle;resizable=0;points=[];autosize=1;strokeColor=none;fillColor=none;" parent="1" vertex="1"><mxGeometry x="2569.91" y="270" width="180" height="70" as="geometry"/></mxCell><mxCell id="108" value="15. returnError(&quot;ไม่พบชื่อบัญชีที่ลงทะเบียนกับอีเมลนี้&quot;)&lt;div&gt;19. userRecord&amp;nbsp;&lt;/div&gt;&lt;div&gt;42.returnError(&quot;การบันทึกรหัสผ่านล้มเหลว&quot;)&lt;/div&gt;&lt;div&gt;46. success&lt;/div&gt;" style="text;html=1;align=center;verticalAlign=middle;resizable=0;points=[];autosize=1;strokeColor=none;fillColor=none;" parent="1" vertex="1"><mxGeometry x="2110.8199999999997" y="275" width="300" height="70" as="geometry"/></mxCell><mxCell id="109" value="20. sendResetPasswordEmail(userRecord)" style="text;html=1;align=center;verticalAlign=middle;resizable=0;points=[];autosize=1;strokeColor=none;fillColor=none;" parent="1" vertex="1"><mxGeometry x="1760.37" y="470" width="250" height="30" as="geometry"/></mxCell><mxCell id="110" style="edgeStyle=orthogonalEdgeStyle;rounded=0;orthogonalLoop=1;jettySize=auto;html=1;endArrow=none;startFill=0;exitX=0.5;exitY=1;exitDx=0;exitDy=0;" parent="1" source="90" edge="1"><mxGeometry relative="1" as="geometry"><mxPoint x="740" y="320" as="targetPoint"/><mxPoint x="1193.78" y="510" as="sourcePoint"/><Array as="points"><mxPoint x="2025" y="630"/><mxPoint x="740" y="630"/></Array></mxGeometry></mxCell><mxCell id="111" value="21. sendEmail(resetTokenLink)" style="text;html=1;align=center;verticalAlign=middle;resizable=0;points=[];autosize=1;strokeColor=none;fillColor=none;" parent="1" vertex="1"><mxGeometry x="1504" y="660" width="190" height="30" as="geometry"/></mxCell><mxCell id="112" value="" style="endArrow=classic;html=1;rounded=0;" parent="1" edge="1"><mxGeometry width="50" height="50" relative="1" as="geometry"><mxPoint x="1609" y="520" as="sourcePoint"/><mxPoint x="1979" y="298" as="targetPoint"/><Array as="points"><mxPoint x="1629" y="520"/><mxPoint x="1629" y="460"/><mxPoint x="1800" y="460"/><mxPoint x="1980" y="460"/></Array></mxGeometry></mxCell></root></mxGraphModel></diagram></mxfile>